REM DIRINDEX 1\2,1\3,1\4,1\5
REM DIRNAME folder01,folder02,folder03,folder04,folder05
TITLE ""
FILE "1800_033.mp3" MP3
  TRACK 01 AUDIO
    TITLE "2:cjc044_0681"
    INDEX 01 00:00:00
  TRACK 02 AUDIO
    TITLE "0:"
    INDEX 01 00:01:21
  TRACK 03 AUDIO
    TITLE "3:cjc044_0682"
    INDEX 01 00:02:06
  TRACK 04 AUDIO
    TITLE "0:"
    INDEX 01 00:04:05
  TRACK 05 AUDIO
    TITLE "4:cjc044_0683"
    INDEX 01 00:04:58
  TRACK 06 AUDIO
    TITLE "0:"
    INDEX 01 00:06:14
  TRACK 07 AUDIO
    TITLE "5:cjc044_0684"
    INDEX 01 00:06:69
  TRACK 08 AUDIO
    TITLE "0:"
    INDEX 01 00:09:26
  TRACK 09 AUDIO
    TITLE "2:cjc044_0685"
    INDEX 01 00:11:11
  TRACK 10 AUDIO
    TITLE "0:"
    INDEX 01 00:12:12
  TRACK 11 AUDIO
    TITLE "3:cjc044_0686"
    INDEX 01 00:13:04
  TRACK 12 AUDIO
    TITLE "0:"
    INDEX 01 00:14:68
  TRACK 13 AUDIO
    TITLE "4:cjc044_0687"
    INDEX 01 00:15:54
  TRACK 14 AUDIO
    TITLE "0:"
    INDEX 01 00:16:53
  TRACK 15 AUDIO
    TITLE "5:cjc044_0688"
    INDEX 01 00:17:33
  TRACK 16 AUDIO
    TITLE "0:"
    INDEX 01 00:20:32
  TRACK 17 AUDIO
    TITLE "2:cjc044_0689"
    INDEX 01 00:22:21
  TRACK 18 AUDIO
    TITLE "0:"
    INDEX 01 00:23:32
  TRACK 19 AUDIO
    TITLE "3:cjc044_0690"
    INDEX 01 00:24:22
  TRACK 20 AUDIO
    TITLE "0:"
    INDEX 01 00:25:27
  TRACK 21 AUDIO
    TITLE "4:cjc044_0691"
    INDEX 01 00:26:15
  TRACK 22 AUDIO
    TITLE "0:"
    INDEX 01 00:27:26
  TRACK 23 AUDIO
    TITLE "5:cjc044_0692"
    INDEX 01 00:27:73
  TRACK 24 AUDIO
    TITLE "0:"
    INDEX 01 00:30:06
  TRACK 25 AUDIO
    TITLE "2:cjc044_0693"
    INDEX 01 00:31:67
  TRACK 26 AUDIO
    TITLE "0:"
    INDEX 01 00:32:68
  TRACK 27 AUDIO
    TITLE "3:cjc044_0694"
    INDEX 01 00:33:60
  TRACK 28 AUDIO
    TITLE "0:"
    INDEX 01 00:34:71
  TRACK 29 AUDIO
    TITLE "4:cjc044_0695"
    INDEX 01 00:35:59
  TRACK 30 AUDIO
    TITLE "0:"
    INDEX 01 00:36:66
  TRACK 31 AUDIO
    TITLE "5:cjc044_0696"
    INDEX 01 00:37:42
  TRACK 32 AUDIO
    TITLE "0:"
    INDEX 01 00:39:68
  TRACK 33 AUDIO
    TITLE "2:cjc044_0697"
    INDEX 01 00:41:61
  TRACK 34 AUDIO
    TITLE "0:"
    INDEX 01 00:42:68
  TRACK 35 AUDIO
    TITLE "3:cjc044_0698"
    INDEX 01 00:43:62
  TRACK 36 AUDIO
    TITLE "0:"
    INDEX 01 00:45:14
  TRACK 37 AUDIO
    TITLE "4:cjc044_0699"
    INDEX 01 00:46:07
  TRACK 38 AUDIO
    TITLE "0:"
    INDEX 01 00:47:21
  TRACK 39 AUDIO
    TITLE "5:cjc044_0700"
    INDEX 01 00:47:70
  TRACK 40 AUDIO
    TITLE "0:"
    INDEX 01 00:51:60
  TRACK 41 AUDIO
    TITLE "2:cjc044_0701"
    INDEX 01 00:53:49
  TRACK 42 AUDIO
    TITLE "0:"
    INDEX 01 00:54:56
  TRACK 43 AUDIO
    TITLE "3:cjc044_0702"
    INDEX 01 00:55:44
  TRACK 44 AUDIO
    TITLE "0:"
    INDEX 01 00:56:53
  TRACK 45 AUDIO
    TITLE "4:cjc044_0703"
    INDEX 01 00:57:39
  TRACK 46 AUDIO
    TITLE "0:"
    INDEX 01 00:58:48
  TRACK 47 AUDIO
    TITLE "5:cjc044_0704"
    INDEX 01 00:59:32
  TRACK 48 AUDIO
    TITLE "0:"
    INDEX 01 01:01:23
  TRACK 49 AUDIO
    TITLE "2:cjc044_0705"
    INDEX 01 01:03:14
  TRACK 50 AUDIO
    TITLE "0:"
    INDEX 01 01:04:21
  TRACK 51 AUDIO
    TITLE "3:cjc044_0706"
    INDEX 01 01:05:11
  TRACK 52 AUDIO
    TITLE "0:"
    INDEX 01 01:06:06
  TRACK 53 AUDIO
    TITLE "4:cjc044_0707"
    INDEX 01 01:06:69
  TRACK 54 AUDIO
    TITLE "0:"
    INDEX 01 01:08:05
  TRACK 55 AUDIO
    TITLE "5:cjc044_0708"
    INDEX 01 01:08:50
  TRACK 56 AUDIO
    TITLE "0:"
    INDEX 01 01:12:26
  TRACK 57 AUDIO
    TITLE "2:cjc044_0709"
    INDEX 01 01:14:21
  TRACK 58 AUDIO
    TITLE "0:"
    INDEX 01 01:15:39
  TRACK 59 AUDIO
    TITLE "3:cjc044_0710"
    INDEX 01 01:16:28
  TRACK 60 AUDIO
    TITLE "0:"
    INDEX 01 01:17:35
  TRACK 61 AUDIO
    TITLE "4:cjc044_0711"
    INDEX 01 01:18:23
  TRACK 62 AUDIO
    TITLE "0:"
    INDEX 01 01:19:42
  TRACK 63 AUDIO
    TITLE "5:cjc044_0712"
    INDEX 01 01:20:14
  TRACK 64 AUDIO
    TITLE "0:"
    INDEX 01 01:23:56
